<?xml version="1.0" ?><svg viewBox="0 0 128 128" xmlns="http://www.w3.org/2000/svg"><title/><g data-name="Mask" id="3e67ffa6-14cf-4734-a755-b28643f43ea3"><line fill="none" stroke="#a81e49" stroke-linecap="round" stroke-miterlimit="10" stroke-width="4" x1="18.17" x2="18.17" y1="31" y2="119"/><path d="M118.25,38.5V49.67A31,31,0,0,1,97,78.94v2.15l-2.51,1.79A38.41,38.41,0,0,1,76,89.83L64,91h0L53.75,90a47.15,47.15,0,0,1-19.93-6.86L31,81.33V78.94A31,31,0,0,1,9.75,49.67V38.5H47.94a25.58,25.58,0,0,1,13.91,4.09c.74.48,1.46,1,2.15,1.52.69-.54,1.41-1,2.15-1.52A25.58,25.58,0,0,1,80.06,38.5Z" fill="#9831e7"/><path d="M118.25,38.5V49.67A31,31,0,0,1,97,78.94v2.15l-2.51,1.79A38.41,38.41,0,0,1,76,89.83L64,91V44.11c.69-.54,1.41-1,2.15-1.52A25.58,25.58,0,0,1,80.06,38.5Z" fill="#8029c2"/><path d="M112.25,44.5v5.17A24.78,24.78,0,0,1,91,74.2V78a32.27,32.27,0,0,1-15.56,5.86L64,85l-9.62-1A40.86,40.86,0,0,1,37,78V74.2h0A24.79,24.79,0,0,1,15.75,49.67V44.5H47.94a19.71,19.71,0,0,1,10.67,3.14A23.41,23.41,0,0,1,64,52.45a23.41,23.41,0,0,1,5.39-4.81A19.71,19.71,0,0,1,80.06,44.5Z" fill="#551fc2"/><path d="M112.25,44.5v.17A24.78,24.78,0,0,1,91,69.2V73a32.27,32.27,0,0,1-15.56,5.86L64,80l-9.62-1A40.86,40.86,0,0,1,37,73V69.2h0A24.79,24.79,0,0,1,15.75,44.67V44.5H47.94a19.71,19.71,0,0,1,10.67,3.14A23.41,23.41,0,0,1,64,52.45a23.41,23.41,0,0,1,5.39-4.81A19.71,19.71,0,0,1,80.06,44.5Z" fill="#6d31e7"/><path d="M112.25,44.5v.17A24.78,24.78,0,0,1,91,69.2V73a32.27,32.27,0,0,1-15.56,5.86L64,80V52.45a23.41,23.41,0,0,1,5.39-4.81A19.71,19.71,0,0,1,80.06,44.5Z" fill="#6323e7"/><path d="M58.48,65H43.37l-3.62-.52a12.21,12.21,0,0,1-10.24-10H46.85a8.48,8.48,0,0,1,4.59,1.35A11.11,11.11,0,0,1,54,58.13Z" fill="#461f94"/><path d="M67.51,65H82.62l3.62-.52a12.21,12.21,0,0,0,10.24-10H79.14a8.48,8.48,0,0,0-4.59,1.35A11.11,11.11,0,0,0,72,58.13Z" fill="#461f94"/><circle cx="22" cy="50" fill="#fe9f59" r="2"/><circle cx="23" cy="57" fill="#fe9f59" r="2"/><circle cx="30" cy="50" fill="#fe9f59" r="2"/><circle cx="108" cy="50" fill="#fe9f59" r="2"/><circle cx="107" cy="57" fill="#fe9f59" r="2"/><circle cx="100" cy="50" fill="#fe9f59" r="2"/><polygon fill="#fe9f59" points="27.89 26.85 28.97 29.04 31.39 29.39 29.64 31.1 30.05 33.51 27.89 32.37 25.73 33.51 26.14 31.1 24.39 29.39 26.81 29.04 27.89 26.85"/><polygon fill="#fe5959" points="19.87 17.5 19.43 19.91 21.17 21.63 18.75 21.96 17.64 24.14 16.58 21.94 14.17 21.57 15.93 19.88 15.54 17.46 17.7 18.62 19.87 17.5"/><circle cx="28" cy="22" fill="#fe5959" r="2"/><path d="M73,103.27h-.25a5.66,5.66,0,0,1-5-3.11A3.9,3.9,0,0,0,65.27,98a1,1,0,1,1,.54-1.92,5.84,5.84,0,0,1,3.62,3,3.71,3.71,0,0,0,3.47,2.18c.76.08,1.93-.76,3.06-1.56,1.47-1,3.13-2.21,5-2.3,1.45-.08,2.91.78,4.32,1.61s2.87,1.67,4,1.46c.93-.17,1.9-1.35,2.85-2.5,1.13-1.37,2.3-2.79,3.9-3.31,1.43-.46,3.09,0,4.7.4s3.15.82,4.17.33c.64-.31,1-1.68,1.26-2.89.34-1.43.67-2.78,1.63-3.5,1.14-.85,2.75-.81,4.31-.78.92,0,2.31,0,2.59-.29.45-.55.09-2-.2-3.18-.35-1.38-.67-2.68-.22-3.74.57-1.32,2-2.18,3.32-2.94.73-.43,1.94-1.14,2-1.52.15-1.24-.34-1.61-1.46-2.32a4.86,4.86,0,0,1-2.57-3.09,1,1,0,1,1,2-.44c.19.86.77,1.26,1.69,1.84,1.14.72,2.7,1.7,2.38,4.26-.17,1.36-1.52,2.15-3,3-1,.6-2.19,1.28-2.5,2a5.85,5.85,0,0,0,.32,2.46c.42,1.69.9,3.6-.19,4.93-.9,1.09-2.57,1.06-4.18,1-1.16,0-2.48-.05-3.07.38a5.64,5.64,0,0,0-.88,2.36c-.39,1.64-.84,3.5-2.33,4.22-1.69.82-3.65.3-5.55-.19a7.62,7.62,0,0,0-3.58-.43c-1,.34-2,1.53-3,2.68-1.17,1.42-2.39,2.89-4,3.19-1.89.34-3.76-.74-5.41-1.7A7.58,7.58,0,0,0,81,99.4c-1.26.06-2.61,1-3.92,1.94S74.4,103.27,73,103.27Z" fill="#fe5959"/></g></svg>